<?xml version="1.0" standalone="no"?><!DOCTYPE svg PUBLIC "-//W3C//DTD SVG 1.1//EN" "http://www.w3.org/Graphics/SVG/1.1/DTD/svg11.dtd"><svg t="1610345972784" class="icon" viewBox="0 0 1024 1024" version="1.1" xmlns="http://www.w3.org/2000/svg" p-id="4874" xmlns:xlink="http://www.w3.org/1999/xlink" width="200" height="200"><defs><style type="text/css"></style></defs><path d="M512 992c-265.08 0-480-214.92-480-480s214.92-480 480-480 480 214.92 480 480-214.92 480-480 480zM513.26 62.33c-249.03 0-450.9 201.87-450.9 450.9s201.87 450.9 450.9 450.9c249.03 0 450.9-201.87 450.9-450.9 0-249-201.87-450.9-450.9-450.9zM644.15 440.51l135.75 0 0 310.32-135.75 0 0-310.32zM673.25 721.73l77.58 0 0-252.12-77.58 0 0 252.12zM440.51 265.97l135.75 0 0 484.86-135.75 0 0-484.86zM469.61 721.73l77.58 0 0-426.66-77.58 0 0 426.66zM236.9 556.88l135.75 0 0 193.95-135.75 0 0-193.95zM265.97 721.73l77.58 0 0-135.75-77.58 0 0 135.75z" p-id="4875"></path></svg>